<?xml version="1.0" standalone="no"?>
<!DOCTYPE svg PUBLIC "-//W3C//DTD SVG 20010904//EN"
 "http://www.w3.org/TR/2001/REC-SVG-20010904/DTD/svg10.dtd">
<svg version="1.0" xmlns="http://www.w3.org/2000/svg"
 width="300.000000pt" height="113.000000pt" viewBox="0 0 300.000000 113.000000"
 preserveAspectRatio="xMidYMid meet">
<metadata>
Created by potrace 1.10, written by Peter Selinger 2001-2011
</metadata>
<g transform="translate(0.000000,113.000000) scale(0.100000,-0.100000)"
fill="#000000" stroke="none">
<path d="M893 1114 c4 -4 -9 -21 -28 -39 -38 -34 -43 -49 -22 -62 8 -4 22 -20
32 -35 17 -28 39 -36 49 -19 4 5 -4 7 -15 4 -20 -6 -21 -3 -15 22 6 25 5 27
-8 16 -9 -8 -16 -9 -16 -3 0 5 6 15 14 21 8 7 13 25 12 42 -2 33 18 59 27 35
4 -9 2 -18 -3 -21 -6 -4 -10 -11 -10 -18 0 -8 3 -8 12 1 18 18 32 14 17 -5
-12 -15 -12 -16 3 -10 9 3 21 0 28 -7 8 -10 7 -15 -5 -20 -8 -3 -15 -1 -15 4
0 6 -5 10 -11 10 -8 0 -9 -4 0 -13 14 -18 2 -30 -16 -16 -8 7 -13 8 -13 1 0
-21 29 -20 54 1 14 13 26 26 26 30 0 12 -79 87 -92 87 -6 0 -8 -3 -5 -6z m-3
-54 c0 -5 -2 -10 -4 -10 -3 0 -8 5 -11 10 -3 6 -1 10 4 10 6 0 11 -4 11 -10z
m-10 -20 c8 -5 11 -10 5 -11 -5 0 -18 -2 -27 -4 -10 -2 -18 3 -18 11 0 16 18
18 40 4z"/>
<path d="M2470 1099 c0 -5 5 -7 10 -4 6 3 10 8 10 11 0 2 -4 4 -10 4 -5 0 -10
-5 -10 -11z"/>
<path d="M116 1065 c-21 -19 -36 -40 -33 -47 4 -9 6 -8 6 3 1 11 10 16 29 15
22 -1 27 3 27 23 0 13 6 26 14 29 9 3 11 0 6 -8 -5 -9 -4 -11 3 -6 7 4 12 3
12 -3 0 -5 -5 -13 -11 -17 -17 -10 12 -24 38 -17 18 4 23 1 24 -13 0 -11 3
-14 6 -6 4 11 -62 83 -76 82 -4 -1 -23 -16 -45 -35z m24 -15 c0 -5 -2 -10 -4
-10 -3 0 -8 5 -11 10 -3 6 -1 10 4 10 6 0 11 -4 11 -10z m60 0 c0 -5 -4 -10
-10 -10 -5 0 -10 5 -10 10 0 6 5 10 10 10 6 0 10 -4 10 -10z"/>
<path d="M2257 1074 c-2 -15 2 -38 9 -53 18 -34 18 -47 -1 -31 -9 8 -15 9 -15
2 0 -6 5 -14 10 -17 13 -8 3 -25 -15 -25 -10 0 -13 13 -10 50 2 28 1 59 -2 69
-5 18 -7 17 -34 -10 -16 -16 -29 -33 -29 -38 0 -13 65 -81 77 -81 12 0 73 66
73 79 0 5 -13 25 -29 45 l-29 36 -5 -26z m-32 -24 c3 -5 1 -10 -4 -10 -6 0
-11 5 -11 10 0 6 2 10 4 10 3 0 8 -4 11 -10z m55 0 c0 -5 -5 -10 -11 -10 -5 0
-7 5 -4 10 3 6 8 10 11 10 2 0 4 -4 4 -10z m-66 -16 c9 -3 16 -10 16 -16 0 -5
-4 -6 -10 -3 -5 3 -10 1 -10 -4 0 -6 5 -11 11 -11 5 0 7 -4 4 -10 -4 -6 -15
-2 -27 9 -11 11 -17 24 -13 30 7 13 8 13 29 5z m91 -24 c-5 -8 -11 -8 -17 -2
-6 6 -7 16 -3 22 5 8 11 8 17 2 6 -6 7 -16 3 -22z"/>
<path d="M2434 1063 l-22 -21 24 -6 c29 -8 31 -20 5 -32 -20 -9 -20 -9 0 -33
12 -15 19 -18 20 -10 1 8 3 24 4 37 2 24 32 62 48 62 5 0 4 -7 -3 -15 -7 -9
-10 -25 -5 -42 5 -23 4 -25 -9 -14 -10 8 -16 9 -16 3 0 -6 5 -14 12 -18 7 -5
5 -11 -7 -21 -11 -7 -14 -13 -9 -13 5 0 22 14 37 31 28 32 34 45 18 34 -12 -7
-24 12 -16 25 5 8 11 8 20 0 7 -6 16 -7 19 -2 3 5 -9 20 -27 33 -33 24 -41 26
-43 9 -4 -31 -7 -33 -17 -10 l-12 25 -21 -22z m29 -17 c4 -10 1 -13 -9 -9 -7
3 -14 9 -14 14 0 14 17 10 23 -5z m-3 -50 c0 -3 -4 -8 -10 -11 -5 -3 -10 -1
-10 4 0 6 5 11 10 11 6 0 10 -2 10 -4z"/>
<path d="M397 1028 c-8 -13 -25 -33 -36 -45 -12 -13 -17 -23 -12 -23 5 0 12 3
14 8 8 11 120 7 124 -5 5 -15 -14 -26 -22 -13 -3 5 -13 10 -21 10 -11 0 -10
-4 4 -18 17 -18 18 -18 39 1 l22 20 -32 31 c-59 58 -63 59 -80 34z m37 -32
c-6 -16 -7 -16 -19 1 -7 9 -10 23 -8 31 5 11 8 11 20 0 8 -8 11 -22 7 -32z
m-29 -6 c3 -5 2 -10 -4 -10 -5 0 -13 5 -16 10 -3 6 -2 10 4 10 5 0 13 -4 16
-10z"/>
<path d="M628 1016 c-33 -42 -33 -41 -7 -43 17 -2 18 1 9 13 -15 17 1 19 18 2
9 -9 12 -9 12 -1 0 7 -4 14 -10 18 -5 3 -7 12 -3 21 8 22 33 -2 30 -29 -2 -18
3 -22 26 -19 18 2 27 -2 27 -11 0 -21 -12 -28 -27 -15 -18 15 -26 5 -28 -36
l-1 -34 33 36 c18 21 32 42 33 48 0 6 -16 25 -35 41 -19 17 -32 33 -28 36 3 4
0 7 -8 7 -8 0 -26 -16 -41 -34z m72 -20 c0 -3 -4 -8 -10 -11 -5 -3 -10 -1 -10
4 0 6 5 11 10 11 6 0 10 -2 10 -4z m0 -66 c0 -5 -2 -10 -4 -10 -3 0 -8 5 -11
10 -3 6 -1 10 4 10 6 0 11 -4 11 -10z"/>
<path d="M1351 1033 c8 -9 14 -26 14 -37 0 -17 5 -20 28 -18 18 2 27 -2 27
-12 0 -19 -17 -30 -25 -16 -9 15 -22 12 -29 -7 -4 -9 -1 -21 5 -27 9 -8 10 -7
6 7 -4 9 -2 17 3 17 6 0 10 -5 10 -10 0 -6 8 -5 20 2 30 19 25 40 -20 81 -42
38 -63 49 -39 20z m39 -37 c0 -3 -4 -8 -10 -11 -5 -3 -10 -1 -10 4 0 6 5 11
10 11 6 0 10 -2 10 -4z"/>
<path d="M1570 1014 c-23 -23 -30 -34 -20 -35 8 -1 25 -3 37 -4 13 -1 28 4 34
11 6 8 16 14 21 14 6 0 4 -8 -3 -17 -12 -15 -12 -16 2 -11 9 4 22 1 28 -5 6
-6 14 -8 17 -4 4 3 -10 22 -31 41 -20 19 -35 29 -32 23 3 -7 -1 -21 -8 -30
-12 -16 -13 -16 -19 -1 -3 9 -1 23 5 31 24 28 3 19 -31 -13z m20 -24 c0 -5 -2
-10 -4 -10 -3 0 -8 5 -11 10 -3 6 -1 10 4 10 6 0 11 -4 11 -10z"/>
<path d="M1980 1036 c8 -11 15 -29 15 -40 0 -17 5 -20 28 -18 18 2 27 -2 27
-12 0 -19 -17 -30 -25 -16 -3 5 -10 10 -15 10 -14 0 -21 -33 -10 -44 8 -8 9
-6 5 7 -4 10 -2 17 4 17 6 0 11 -5 11 -12 0 -6 9 -3 20 7 11 10 20 23 20 30 0
11 -29 40 -75 75 -19 14 -19 14 -5 -4z m40 -40 c0 -3 -4 -8 -10 -11 -5 -3 -10
-1 -10 4 0 6 5 11 10 11 6 0 10 -2 10 -4z"/>
<path d="M1307 1001 c-14 -17 -28 -27 -31 -24 -3 4 -6 0 -6 -8 0 -21 48 -62
65 -55 8 3 15 11 15 17 0 9 -4 9 -14 0 -10 -8 -16 -9 -21 -1 -3 5 -1 10 4 10
6 0 11 5 11 12 0 9 -3 9 -11 1 -17 -17 -43 -5 -29 13 7 7 19 10 28 7 15 -6 15
-5 3 10 -15 19 -1 23 17 5 9 -9 12 -9 12 -1 0 7 -5 15 -10 18 -6 4 -8 11 -5
16 13 20 -5 7 -28 -20z"/>
<path d="M1938 1005 c-22 -30 -22 -30 3 -32 17 -2 18 1 9 13 -15 17 1 19 18 2
9 -9 12 -9 12 -1 0 7 -5 15 -10 18 -6 4 -8 11 -5 16 13 20 -11 7 -27 -16z"/>
<path d="M2401 1014 c0 -11 3 -14 6 -6 3 7 2 16 -1 19 -3 4 -6 -2 -5 -13z"/>
<path d="M126 1011 c-4 -6 -12 -9 -17 -6 -18 12 -9 -11 16 -38 32 -34 52 -34
67 -2 6 14 18 25 27 25 10 0 7 5 -9 13 -20 11 -27 11 -38 0 -11 -10 -11 -17
-3 -27 8 -10 9 -16 1 -21 -15 -9 -30 3 -24 20 8 19 -11 51 -20 36z m14 -21 c0
-5 -4 -10 -10 -10 -5 0 -10 5 -10 10 0 6 5 10 10 10 6 0 10 -4 10 -10z m60 6
c0 -3 -4 -8 -10 -11 -5 -3 -10 -1 -10 4 0 6 5 11 10 11 6 0 10 -2 10 -4z"/>
<path d="M2756 953 c-16 -20 -25 -34 -20 -31 5 4 18 0 28 -7 17 -13 17 -14 -9
-21 -19 -5 -23 -9 -14 -15 7 -4 19 -3 26 3 9 7 13 7 13 0 0 -6 -4 -13 -10 -17
-16 -10 0 -32 22 -31 23 1 73 44 74 63 0 7 -4 9 -10 6 -16 -10 -57 -10 -63 1
-12 19 -9 76 3 76 7 0 11 -11 9 -25 -2 -19 1 -23 10 -15 9 7 15 8 19 1 4 -5
-2 -14 -11 -20 -17 -10 -17 -10 0 -11 9 0 17 4 17 10 0 5 7 7 15 4 7 -3 -1 10
-20 30 -18 20 -37 36 -42 36 -4 0 -21 -17 -37 -37z m24 -24 c0 -6 -4 -7 -10
-4 -5 3 -10 11 -10 16 0 6 5 7 10 4 6 -3 10 -11 10 -16z m22 -59 c1 -9 -1 -18
-6 -20 -5 -3 -10 7 -10 22 -2 28 9 26 16 -2z m28 4 c0 -8 -4 -12 -10 -9 -5 3
-10 10 -10 16 0 5 5 9 10 9 6 0 10 -7 10 -16z"/>
<path d="M580 963 c0 -5 14 -19 30 -32 29 -21 50 -21 50 1 0 7 -5 6 -14 -1
-10 -8 -16 -9 -21 -1 -3 5 -1 10 4 10 6 0 11 5 11 11 0 8 -4 8 -14 0 -11 -9
-18 -8 -30 4 -9 9 -16 12 -16 8z"/>
<path d="M1531 963 c-1 -6 6 -18 14 -27 14 -14 17 -14 33 2 10 9 13 19 8 21
-6 2 -12 -1 -14 -7 -2 -7 -8 -12 -13 -12 -6 0 -7 5 -3 12 4 6 3 8 -4 4 -5 -3
-13 0 -15 6 -4 9 -6 9 -6 1z"/>
<path d="M385 950 c-3 -5 -13 -6 -23 -3 -9 3 -5 -4 10 -16 27 -22 48 -21 48 1
0 6 -7 5 -16 -3 -15 -12 -16 -11 -10 9 7 22 2 30 -9 12z"/>
<path d="M1183 932 c-17 -22 -18 -30 -7 -40 17 -16 32 -16 16 0 -18 18 -15 33
3 18 14 -12 15 -10 11 13 -3 19 0 27 10 27 8 0 12 -4 9 -10 -3 -5 -1 -10 6
-10 8 0 7 -5 -2 -17 -13 -16 -12 -17 3 -5 11 9 18 10 23 2 3 -5 1 -10 -4 -10
-6 0 -11 -5 -11 -12 0 -9 3 -9 11 -1 17 17 43 5 29 -13 -7 -7 -19 -10 -28 -7
-15 6 -15 4 -4 -10 13 -16 47 -13 37 3 -3 5 -1 11 4 15 10 6 -62 85 -77 85 -5
0 -17 -12 -29 -28z"/>
<path d="M1630 952 c0 -7 5 -12 11 -12 5 0 7 -5 3 -11 -4 -8 0 -8 15 0 23 13
29 26 7 18 -7 -3 -19 0 -25 6 -8 8 -11 8 -11 -1z"/>
<path d="M1945 951 c-3 -6 -11 -9 -16 -6 -5 4 -9 2 -9 -3 0 -6 7 -13 16 -16 8
-3 13 -2 9 3 -3 5 1 11 7 14 7 2 10 7 7 11 -4 4 -10 2 -14 -3z"/>
<path d="M430 931 c0 -5 5 -13 10 -16 6 -3 10 -2 10 4 0 5 -4 13 -10 16 -5 3
-10 2 -10 -4z"/>
<path d="M1587 933 c-4 -3 -7 -11 -7 -17 0 -6 5 -5 12 2 6 6 9 14 7 17 -3 3
-9 2 -12 -2z"/>
<path d="M1610 931 c0 -5 5 -13 10 -16 6 -3 10 -2 10 4 0 5 -4 13 -10 16 -5 3
-10 2 -10 -4z"/>
<path d="M1967 933 c-4 -3 -7 -11 -7 -17 0 -6 5 -5 12 2 6 6 9 14 7 17 -3 3
-9 2 -12 -2z"/>
<path d="M70 889 c-57 -5 -52 -6 43 -7 68 -1 106 2 102 8 -6 10 -29 10 -145
-1z"/>
<path d="M230 815 l0 -75 -110 0 c-61 0 -110 -4 -110 -9 0 -5 -3 -17 -6 -25
-5 -12 -2 -15 9 -10 9 3 13 12 10 20 -4 11 12 14 86 14 93 0 99 -2 144 -46 12
-11 31 -25 42 -29 16 -8 12 -10 -22 -13 -41 -3 -43 -5 -43 -36 l0 -33 59 2
c68 2 71 -2 71 -87 0 -27 5 -48 10 -48 6 0 10 27 10 60 0 33 -4 60 -10 60 -5
0 -10 4 -10 10 0 5 6 9 13 7 9 -1 12 22 12 93 l0 94 -52 -3 -53 -2 0 35 0 36
55 0 c54 0 55 0 55 30 l0 30 -80 0 -80 0 0 -75z m63 45 c-12 -5 -26 -17 -32
-27 -9 -16 -10 -15 -9 7 2 20 8 25 32 27 27 1 28 0 9 -7z m57 -6 c0 -2 -7 -4
-15 -4 -8 0 -15 4 -15 10 0 5 7 7 15 4 8 -4 15 -8 15 -10z m-55 -118 c8 4 15
2 15 -4 0 -11 -46 -22 -55 -14 -3 3 -5 17 -5 31 l0 25 15 -21 c9 -13 22 -20
30 -17z m69 -3 c-5 -5 -12 -12 -16 -18 -4 -6 -8 -2 -8 8 0 9 7 17 17 17 9 0
12 -3 7 -7z m-26 -63 c1 -32 -12 -40 -22 -15 -3 8 -12 15 -21 15 -8 0 -15 7
-15 15 0 10 10 15 28 15 25 0 29 -4 30 -30z m1 -52 c4 6 11 5 18 -3 10 -11 3
-14 -42 -14 -59 0 -84 13 -32 17 17 2 33 5 36 8 3 3 7 0 10 -7 2 -7 6 -8 10
-1z"/>
<path d="M411 729 l-2 -162 61 6 c47 4 60 2 60 -9 0 -8 -7 -14 -15 -14 -12 0
-15 -17 -15 -89 0 -66 -4 -92 -15 -101 -9 -7 -15 -29 -15 -54 0 -23 -7 -51
-15 -62 -22 -29 -20 -74 4 -74 11 0 26 -6 34 -14 9 -9 51 -17 125 -21 72 -5
112 -12 112 -19 0 -6 4 -6 9 2 6 11 44 14 165 13 144 -2 156 0 156 16 0 10 -9
27 -21 37 l-21 18 21 19 c12 11 26 17 31 14 20 -12 35 21 35 78 0 31 -3 57 -7
57 -5 0 -8 6 -8 14 0 8 -7 17 -17 20 -14 6 -15 20 -10 121 l6 115 -35 0 c-21
0 -33 4 -29 10 3 6 1 10 -4 10 -6 0 -11 9 -11 20 0 17 7 20 40 20 38 0 40 2
40 30 0 28 -2 30 -40 30 -39 0 -40 1 -40 35 0 34 1 35 40 35 38 0 40 2 40 30
l0 30 -65 0 -65 0 0 -160 0 -160 24 6 c18 4 25 1 29 -15 5 -21 37 -30 37 -11
0 6 5 10 10 10 6 0 10 -28 10 -65 0 -59 -11 -85 -23 -52 -2 6 -2 -28 0 -78 7
-110 22 -137 24 -39 1 38 4 59 6 47 2 -13 7 -23 11 -23 4 0 7 -20 7 -45 0 -46
-3 -49 -51 -46 -17 2 -20 -4 -21 -34 -1 -45 -6 -50 -31 -36 -27 14 -78 14
-104 0 -20 -11 -31 -8 -92 23 -13 7 -16 6 -10 -3 5 -9 2 -11 -9 -6 -15 6 -34
-20 -22 -31 3 -3 5 -1 5 4 0 5 18 9 40 10 22 1 40 -3 40 -7 0 -5 14 -9 30 -9
17 0 30 4 30 9 0 5 18 8 40 8 22 -1 40 -6 40 -10 0 -5 14 -7 32 -5 20 2 33 -2
36 -11 4 -12 -19 -13 -141 -9 -102 4 -148 2 -151 -6 -3 -7 -8 -6 -15 4 -8 12
-11 12 -11 1 0 -10 -3 -11 -13 -3 -7 6 -23 9 -35 5 -12 -3 -22 -1 -22 5 0 6 8
13 18 15 10 3 6 5 -10 6 -18 1 -28 7 -28 16 0 8 -7 15 -15 15 -20 0 -19 -9 3
-33 17 -19 16 -19 -25 -13 -137 20 -130 16 -117 63 4 13 13 23 20 23 10 0 14
13 14 44 0 24 3 51 6 60 7 17 34 22 34 7 0 -5 16 -9 35 -8 19 1 35 5 35 10 0
4 7 7 15 7 11 0 15 -11 15 -35 0 -22 6 -38 15 -41 8 -4 15 -12 15 -19 0 -24
-21 -28 -42 -8 -15 13 -22 15 -25 6 -6 -18 -33 -16 -33 2 0 8 -6 15 -14 15 -8
0 -16 10 -18 22 -5 32 -28 35 -28 4 0 -16 6 -26 15 -26 8 0 15 -8 15 -18 0
-39 43 -55 65 -25 8 11 14 13 19 5 4 -7 2 -12 -3 -12 -6 0 -11 -4 -11 -10 0
-5 7 -10 15 -10 8 0 15 5 15 10 0 6 6 10 14 10 24 0 48 49 44 91 -3 30 0 39
12 39 9 0 15 9 15 25 0 19 -5 25 -22 25 -13 0 -23 5 -23 11 0 14 -55 69 -69
69 -6 0 -11 17 -11 38 0 37 0 37 40 37 32 0 40 -4 40 -18 0 -25 24 -47 52 -47
30 0 48 17 48 47 0 16 4 21 16 16 14 -5 15 3 12 61 l-3 66 28 0 c24 0 27 -4
27 -31 0 -20 -4 -28 -12 -23 -8 5 -9 2 -3 -12 4 -10 10 -29 12 -41 4 -16 13
-23 29 -23 26 0 25 -4 28 111 1 49 -1 55 -16 51 -12 -3 -18 1 -18 12 0 9 8 16
18 16 15 0 17 8 14 65 -4 61 -5 65 -28 65 -23 0 -24 -3 -24 -65 0 -65 0 -65
-28 -65 l-28 0 4 65 4 65 -31 0 -31 0 0 -65 c0 -51 3 -65 15 -65 8 0 15 -7 15
-15 0 -8 -6 -15 -13 -15 -10 0 -14 -16 -13 -60 1 -42 -3 -60 -11 -60 -7 0 -13
7 -13 15 0 11 -11 15 -42 15 l-43 0 3 125 3 125 -29 0 -30 0 4 -115 c2 -95 0
-115 -12 -115 -11 0 -14 22 -14 115 l0 115 -79 0 -79 0 -1 -161z m135 101 c1
-19 0 -26 -3 -15 -9 35 -48 52 -78 33 -5 -3 -15 0 -21 6 -9 10 1 12 45 12 l56
-1 1 -35z m464 28 c0 -5 -4 -6 -10 -3 -5 3 -10 2 -10 -3 0 -6 -6 -12 -13 -15
-7 -3 -13 2 -13 12 0 10 9 17 23 17 13 1 23 -2 23 -8z m-490 -123 l0 -95 -30
0 -30 0 0 95 0 95 30 0 30 0 0 -95z m32 -118 c-4 -24 -8 -27 -26 -22 -12 4
-38 6 -58 5 l-38 -1 2 93 2 93 5 -80 6 -80 33 -3 c52 -5 62 10 64 97 l1 76 7
-75 c4 -41 4 -88 2 -103z m468 112 c0 -5 -4 -9 -9 -9 -5 0 -16 -3 -25 -6 -11
-4 -16 0 -16 14 0 15 5 18 25 14 14 -2 25 -8 25 -13z m-142 -13 c14 -29 23
-86 14 -86 -4 0 -9 16 -10 37 -2 20 -5 40 -8 45 -9 14 -67 9 -86 -9 -10 -9
-18 -11 -18 -6 0 17 43 41 72 41 16 -1 30 -9 36 -22z m-101 -58 c-3 -8 -6 -5
-6 6 -1 11 2 17 5 13 3 -3 4 -12 1 -19z m-137 -45 c0 -18 -20 -16 -27 3 -8 21
-33 -49 -33 -93 0 -25 7 -36 30 -50 17 -9 30 -23 30 -30 0 -7 5 -12 12 -10 7
1 12 -3 13 -10 0 -6 3 -15 8 -19 11 -11 9 -104 -3 -104 -5 0 -10 16 -10 35 0
35 -29 63 -50 50 -18 -11 -55 -15 -67 -7 -17 10 -20 155 -4 160 6 2 11 10 11
18 0 8 5 14 10 14 6 0 10 9 10 19 0 30 11 51 26 51 8 0 14 5 14 12 0 16 29
-23 30 -39z m350 16 c0 -5 4 -8 9 -4 5 3 12 1 16 -4 3 -6 13 -7 22 -4 20 8 13
-16 -8 -30 -11 -7 -23 -3 -42 13 -14 13 -24 27 -21 32 7 12 24 10 24 -3z
m-292 -20 c-10 -7 -10 -9 1 -9 8 0 11 -3 8 -6 -4 -4 -13 -1 -21 5 -8 7 -20 10
-26 6 -5 -3 -10 -2 -10 4 0 5 14 9 31 9 20 -1 26 -4 17 -9z m52 -44 c0 -8 -7
-15 -15 -15 -8 0 -15 7 -15 15 0 8 7 15 15 15 8 0 15 -7 15 -15z"/>
<path d="M1097 733 l2 -158 43 0 c33 0 43 -4 46 -17 2 -11 -3 -18 -12 -18 -13
0 -16 -15 -16 -94 0 -74 -3 -95 -15 -100 -11 -4 -15 -20 -15 -55 0 -31 -6 -55
-15 -65 -8 -8 -15 -28 -15 -45 0 -24 4 -31 19 -31 11 0 26 -7 35 -15 18 -19
56 -20 56 -1 0 9 -17 16 -45 20 -25 4 -45 13 -45 19 0 29 13 57 26 57 10 0 14
15 14 55 0 40 4 57 15 61 11 5 14 24 12 92 -1 65 1 86 11 85 7 -2 12 8 12 28
0 17 4 28 10 24 6 -4 10 8 10 29 0 35 -1 36 -40 36 l-40 0 0 125 0 125 -27 0
-28 0 2 -157z m75 -113 c18 0 28 -5 28 -15 0 -8 -5 -15 -11 -15 -5 0 -8 4 -5
9 3 4 -7 7 -23 5 -22 -3 -30 1 -34 18 -5 16 -3 18 6 9 6 -6 24 -11 39 -11z"/>
<path d="M1330 700 l0 -190 25 -6 c41 -10 75 3 75 29 -1 25 -22 57 -39 57 -7
0 -11 21 -11 55 l0 55 55 0 55 0 0 95 0 95 -80 0 -80 0 0 -190z m139 93 l2
-73 -34 4 c-21 2 -43 -2 -55 -10 -19 -13 -21 -12 -27 15 -3 16 -5 54 -3 84 l3
54 56 -1 56 0 2 -73z m-104 -183 c3 -5 1 -10 -4 -10 -6 0 -11 5 -11 10 0 6 2
10 4 10 3 0 8 -4 11 -10z m18 -79 c17 1 18 2 5 6 -21 5 -24 33 -4 33 14 0 29
-37 20 -52 -18 -29 -68 9 -55 42 4 11 6 9 9 -7 2 -16 10 -23 25 -22z"/>
<path d="M1381 843 c-15 -10 -21 -25 -21 -53 0 -34 4 -41 25 -46 14 -3 36 -3
50 0 21 5 25 12 25 44 -1 61 -36 86 -79 55z m59 -48 c0 -32 -2 -35 -30 -35
-28 0 -30 3 -30 35 0 32 2 35 30 35 28 0 30 -3 30 -35z"/>
<path d="M1517 740 c1 -118 -1 -150 -12 -150 -7 0 -15 9 -18 20 -3 11 -1 20 5
20 5 0 6 5 2 11 -4 8 -9 8 -17 0 -6 -6 -25 -12 -41 -12 l-31 -2 29 -4 c16 -3
37 -14 47 -26 15 -19 27 -22 88 -21 39 1 71 -2 71 -7 0 -5 7 -6 15 -3 8 4 15
2 15 -4 0 -6 -6 -13 -12 -15 -7 -3 -5 -6 6 -6 17 -1 18 -7 13 -76 -3 -42 -1
-77 4 -80 5 -4 9 -15 9 -26 0 -10 5 -19 10 -19 6 0 10 -22 10 -50 0 -32 -4
-50 -12 -50 -6 0 -22 -10 -35 -22 l-23 -21 0 26 c0 19 4 25 15 21 12 -5 15 5
15 55 0 60 -11 76 -35 52 -12 -12 -265 -19 -265 -8 0 4 -6 7 -12 7 -18 0 -18
-160 -1 -178 8 -8 30 -12 60 -9 l48 3 -47 2 c-27 1 -48 5 -49 10 -1 4 -3 36
-5 72 l-3 65 144 0 145 0 0 -27 c0 -16 -5 -28 -11 -28 -8 0 -10 -16 -5 -50 l7
-50 -58 6 c-32 4 -56 4 -53 1 5 -5 59 -12 133 -16 4 -1 7 -4 7 -8 0 -5 -97 -7
-215 -5 -129 2 -215 -1 -215 -6 0 -16 39 -22 138 -22 82 0 114 -9 80 -23 -10
-4 -10 -6 0 -6 8 -1 16 7 18 16 4 16 17 18 114 15 105 -4 108 -3 103 16 -3 12
-13 28 -23 37 -18 16 -18 17 0 35 10 10 26 20 37 22 14 3 19 15 23 66 3 34 2
62 -2 62 -5 0 -8 7 -8 15 0 7 -6 18 -14 22 -9 6 -15 36 -18 100 -4 92 -4 92
19 87 l23 -6 0 131 0 131 25 0 25 0 0 -130 0 -130 25 0 c16 0 25 -6 25 -15 0
-8 -5 -15 -11 -15 -6 0 -9 -7 -5 -15 3 -9 0 -15 -9 -15 -12 0 -15 -17 -15 -84
0 -62 -4 -87 -15 -96 -8 -7 -15 -29 -15 -49 0 -21 -7 -46 -15 -57 -8 -10 -15
-30 -15 -44 0 -21 7 -27 40 -38 72 -22 69 -27 68 123 -1 102 -4 137 -14 143
-16 9 -14 88 2 85 7 -1 10 64 10 198 l-1 199 -81 0 -81 0 2 -150 c1 -106 -1
-150 -9 -147 -6 2 -13 12 -15 23 -2 10 -8 25 -13 32 -12 14 -42 17 -33 2 3 -5
-3 -10 -14 -10 -17 0 -21 6 -21 30 0 28 2 30 40 30 38 0 40 2 40 30 0 28 -2
30 -40 30 -39 0 -40 1 -40 35 0 34 1 35 40 35 38 0 40 2 40 30 l0 30 -67 0
-68 0 2 -150z m83 119 c0 -4 -6 -6 -14 -3 -8 3 -21 -4 -29 -16 -8 -12 -18 -17
-21 -12 -3 6 0 13 6 15 10 4 10 7 1 14 -9 6 -1 9 22 10 19 1 35 -3 35 -8z
m157 -3 c4 -5 3 -6 -4 -2 -7 4 -21 -2 -32 -13 -11 -11 -23 -16 -26 -11 -3 4 1
11 7 13 10 4 10 8 -1 15 -10 7 -5 9 17 8 17 -1 34 -5 39 -10z m51 -11 l0 -25
-19 21 c-11 12 -19 24 -19 26 0 1 8 3 19 3 13 0 19 -7 19 -25z m-1 -97 c-2
-13 -4 -3 -4 22 0 25 2 35 4 23 2 -13 2 -33 0 -45z m-229 -8 c13 0 11 -5 -8
-20 -23 -17 -25 -18 -31 -2 -4 9 -2 23 4 31 8 9 12 10 15 2 2 -6 11 -11 20
-11z m17 -117 c38 5 46 -6 17 -22 -24 -13 -77 -7 -76 8 1 6 2 21 3 34 l2 22
10 -23 c8 -20 14 -23 44 -19z m235 -270 c0 -21 -8 -45 -17 -56 -17 -18 -17
-19 0 -32 12 -9 17 -26 17 -64 0 -44 -3 -51 -20 -51 -11 0 -20 5 -20 10 0 6
-9 10 -20 10 -22 0 -23 3 -14 38 4 12 13 22 20 22 10 0 14 12 14 39 0 21 6 51
14 66 8 15 12 34 9 41 -3 8 0 14 6 14 6 0 11 -17 11 -37z"/>
<path d="M1860 773 c0 -65 3 -176 7 -246 5 -105 9 -130 22 -135 9 -3 18 -8 21
-11 8 -10 60 -31 75 -31 8 0 15 9 15 19 0 14 -5 18 -20 14 -12 -3 -20 0 -20 7
0 13 -57 70 -71 70 -5 0 -9 28 -9 63 0 46 3 58 11 47 6 -8 12 -11 15 -5 2 6
29 9 59 8 l55 -2 -1 94 -1 95 -39 0 c-37 0 -39 -2 -39 -30 0 -20 5 -30 15 -30
18 0 20 20 3 20 -7 0 -5 5 5 11 28 16 37 2 37 -57 0 -61 -12 -72 -80 -70 l-35
2 -1 59 c-1 58 -1 58 3 8 l4 -53 38 0 c47 0 61 14 61 65 0 29 -3 36 -10 25 -5
-8 -10 -27 -10 -42 0 -24 -4 -28 -30 -28 l-30 0 0 95 0 95 55 0 c54 0 55 0 55
30 l0 30 -80 0 -80 0 0 -117z m96 85 c-9 -5 -20 -7 -24 -4 -19 11 -41 -23 -45
-70 -3 -39 -4 -35 -3 16 l0 65 44 1 c30 0 39 -2 28 -8z m-56 -427 c0 -5 9 -11
20 -14 11 -3 20 -10 20 -16 0 -14 -16 -14 -41 -1 -20 11 -27 40 -9 40 6 0 10
-4 10 -9z"/>
<path d="M2040 729 l0 -161 40 4 c22 2 41 -1 43 -6 2 -5 19 -6 40 -2 l37 7 0
159 0 160 -25 0 -25 0 0 -125 0 -125 -30 0 -30 0 2 125 3 125 -27 0 -28 0 0
-161z m137 44 c-3 -10 -5 -4 -5 12 0 17 2 24 5 18 2 -7 2 -21 0 -30z m-103
-38 c-4 -8 -8 -15 -10 -15 -2 0 -4 7 -4 15 0 8 4 15 10 15 5 0 7 -7 4 -15z
m10 -103 c9 -16 68 -16 84 0 13 13 16 -1 4 -17 -8 -12 -82 -13 -99 -2 -8 5
-13 27 -12 55 1 46 1 46 8 12 4 -20 11 -41 15 -48z m93 31 c-3 -10 -5 -4 -5
12 0 17 2 24 5 18 2 -7 2 -21 0 -30z"/>
<path d="M2227 747 c1 -78 2 -150 2 -160 1 -10 6 -15 12 -12 6 4 13 -2 16 -14
3 -12 13 -21 24 -21 20 0 26 -15 10 -24 -5 -4 -11 0 -14 6 -2 7 -8 10 -12 6
-4 -4 -2 -14 5 -22 10 -13 14 -13 26 -1 20 19 18 56 -3 61 -16 5 -18 20 -15
164 l3 160 -28 0 -28 0 2 -143z m33 -102 c0 -14 -4 -25 -10 -25 -8 0 -8 23 -1
48 4 12 11 -3 11 -23z"/>
<path d="M2306 732 l1 -157 27 -3 26 -3 0 130 0 131 25 0 25 0 0 -130 0 -130
25 0 24 0 3 160 3 160 -80 0 -80 0 1 -158z m64 131 c-1 -12 -50 -45 -50 -34 0
5 7 17 16 25 16 17 34 21 34 9z m67 -113 l-1 -115 -3 99 c-3 87 -6 100 -26
116 l-22 18 26 -1 26 -2 0 -115z"/>
<path d="M2490 795 l0 -95 55 0 c56 0 63 -6 49 -44 -4 -12 -20 -16 -55 -16
l-49 0 0 -34 c0 -29 3 -33 20 -29 11 3 20 0 20 -6 0 -6 -4 -11 -10 -11 -5 0
-10 -9 -10 -20 0 -11 -4 -20 -10 -20 -5 0 -10 -14 -10 -31 0 -23 -11 -44 -41
-76 l-41 -45 4 -93 c2 -74 7 -97 22 -114 19 -20 53 -30 41 -12 -3 5 -1 12 5
16 5 3 10 1 10 -6 0 -7 3 -10 6 -6 3 3 3 11 -1 17 -5 8 -10 8 -20 0 -10 -8
-18 -4 -34 18 -27 39 -26 144 2 185 49 72 66 81 151 84 66 2 84 -1 108 -18 15
-11 25 -25 22 -31 -4 -7 -2 -8 4 -4 7 4 12 3 12 -3 0 -18 -19 -22 -28 -5 -6
11 -11 13 -16 5 -10 -16 -26 -14 -26 4 0 8 5 15 12 15 6 0 9 3 5 6 -3 4 -13 4
-22 0 -25 -9 0 -48 28 -44 18 2 22 -2 20 -22 -1 -14 0 -18 3 -7 3 9 12 17 21
17 9 0 13 -6 9 -15 -3 -8 -1 -15 4 -15 6 0 10 9 10 20 0 11 -5 20 -10 20 -7 0
-8 6 -1 17 7 13 3 23 -17 42 -21 20 -40 26 -89 29 l-63 4 0 44 c0 26 -5 44
-11 44 -8 0 -10 -15 -7 -45 5 -44 5 -45 -23 -45 -22 0 -29 5 -29 20 0 11 7 20
15 20 8 0 15 9 15 19 0 42 9 48 61 43 l50 -5 -3 107 c-3 120 -5 118 82 121 69
2 88 -11 107 -72 9 -29 22 -53 28 -53 6 0 17 -11 25 -24 14 -28 50 -42 50 -20
0 8 -7 14 -16 14 -8 0 -13 4 -9 9 3 5 -4 12 -15 16 -11 3 -20 13 -20 21 0 8
-7 14 -15 14 -10 0 -15 10 -15 30 0 17 -4 30 -10 30 -5 0 -7 6 -4 14 9 23 -46
37 -139 34 -49 -1 -81 -5 -73 -8 27 -9 1 -32 -43 -37 l-41 -5 0 36 0 36 55 0
c54 0 55 0 55 30 l0 30 -80 0 -80 0 0 -95z m120 62 c0 -4 -13 -6 -28 -4 -34 6
-58 -11 -65 -43 -3 -14 -4 -7 -3 15 l1 41 48 0 c26 0 47 -4 47 -9z m-76 -119
c-7 -10 -1 -10 28 1 38 14 68 -3 65 -38 -1 -16 -6 -27 -10 -24 -5 3 -6 11 -3
18 6 16 -25 29 -70 28 -28 0 -31 3 -32 29 -1 28 0 29 13 12 7 -10 11 -22 9
-26z m81 -107 c-4 -13 -15 -21 -29 -21 -12 0 -28 -6 -35 -12 -11 -11 -14 -10
-18 0 -3 6 -9 10 -14 6 -5 -3 -9 0 -9 6 0 6 6 10 13 9 47 -6 79 2 84 21 3 12
8 19 10 16 3 -2 2 -14 -2 -25z"/>
<path d="M1176 862 c-9 -14 6 -52 19 -52 18 0 8 -39 -17 -66 -12 -14 -18 -33
-16 -50 3 -26 7 -29 47 -32 62 -5 86 3 99 33 17 36 15 41 -8 20 -11 -10 -20
-24 -20 -32 0 -9 -16 -13 -55 -13 -54 0 -55 0 -55 30 0 19 7 33 20 40 11 6 20
17 20 25 0 8 5 15 11 15 7 0 6 8 -3 23 -9 13 -12 30 -8 42 7 19 7 19 14 -2 4
-12 16 -25 27 -28 10 -4 19 -12 19 -18 1 -17 29 -52 36 -45 8 9 -39 76 -67 96
-28 19 -56 25 -63 14z m24 -12 c0 -5 -5 -10 -11 -10 -5 0 -7 5 -4 10 3 6 8 10
11 10 2 0 4 -4 4 -10z"/>
<path d="M90 830 c0 -3 21 -7 46 -9 30 -1 44 2 39 8 -6 11 -85 12 -85 1z"/>
<path d="M8 813 c7 -3 16 -2 19 1 4 3 -2 6 -13 5 -11 0 -14 -3 -6 -6z"/>
<path d="M88 803 c7 -3 16 -2 19 1 4 3 -2 6 -13 5 -11 0 -14 -3 -6 -6z"/>
<path d="M128 803 c7 -3 16 -2 19 1 4 3 -2 6 -13 5 -11 0 -14 -3 -6 -6z"/>
<path d="M168 803 c6 -2 18 -2 25 0 6 3 1 5 -13 5 -14 0 -19 -2 -12 -5z"/>
<path d="M1631 794 c0 -11 3 -14 6 -6 3 7 2 16 -1 19 -3 4 -6 -2 -5 -13z"/>
<path d="M2575 790 c-3 -6 1 -7 9 -4 18 7 21 14 7 14 -6 0 -13 -4 -16 -10z"/>
<path d="M97 773 c18 -2 50 -2 70 0 21 2 7 4 -32 4 -38 0 -55 -2 -38 -4z"/>
<path d="M1236 763 c-6 -14 -5 -15 5 -6 7 7 10 15 7 18 -3 3 -9 -2 -12 -12z"/>
<path d="M670 740 c-13 -8 -12 -10 3 -10 9 0 17 5 17 10 0 12 -1 12 -20 0z"/>
<path d="M1245 741 c-3 -5 -2 -12 3 -15 5 -3 9 1 9 9 0 17 -3 19 -12 6z"/>
<path d="M2118 743 c7 -3 16 -2 19 1 4 3 -2 6 -13 5 -11 0 -14 -3 -6 -6z"/>
<path d="M56 663 c54 -3 65 -8 94 -38 19 -19 39 -35 44 -35 7 0 8 3 1 8 -5 4
-15 16 -22 27 -6 11 -16 19 -22 18 -6 -2 -11 4 -11 12 0 12 -14 15 -72 13
l-73 -2 61 -3z"/>
<path d="M2493 663 c9 -2 23 -2 30 0 6 3 -1 5 -18 5 -16 0 -22 -2 -12 -5z"/>
<path d="M2777 663 c-3 -3 -28 -5 -56 -5 -28 1 -53 -3 -56 -9 -4 -5 17 -9 49
-9 43 0 56 -3 56 -15 0 -8 7 -15 16 -15 9 0 18 -9 21 -20 3 -13 14 -20 28 -20
24 0 49 22 38 34 -4 4 -1 11 7 16 8 5 12 12 8 15 -4 4 -16 -5 -29 -19 -21 -24
-23 -24 -45 -8 -26 19 -32 37 -9 28 20 -7 19 -4 -4 16 -11 9 -22 14 -24 11z"/>
<path d="M2820 660 c0 -5 5 -10 10 -10 6 0 10 5 10 10 0 6 -4 10 -10 10 -5 0
-10 -4 -10 -10z"/>
<path d="M1240 636 c0 -9 7 -12 20 -9 15 4 20 0 20 -16 0 -12 -6 -21 -15 -21
-12 0 -15 -13 -15 -56 0 -39 4 -54 12 -52 15 5 68 -50 68 -70 0 -9 7 -12 20
-9 16 4 20 0 20 -18 0 -31 15 -35 133 -35 82 1 106 4 123 18 23 19 39 75 20
69 -6 -2 -11 -11 -11 -19 -1 -39 -24 -48 -121 -48 -77 0 -94 3 -94 15 0 8 -4
15 -10 15 -5 0 -7 -7 -4 -15 4 -8 1 -15 -5 -15 -6 0 -11 11 -11 24 0 18 -6 26
-22 28 -14 2 -22 9 -20 18 2 8 1 12 -3 8 -9 -8 -35 16 -35 31 0 6 -5 11 -11
11 -6 0 -9 24 -7 65 1 36 7 65 13 65 5 0 -3 7 -19 15 -35 19 -46 19 -46 1z
m37 -118 c-2 -13 -4 -3 -4 22 0 25 2 35 4 23 2 -13 2 -33 0 -45z"/>
<path d="M33 595 c-18 -20 -16 -72 3 -79 25 -10 59 -7 72 6 15 15 16 58 2 58
-5 0 -10 7 -10 15 0 19 -50 19 -67 0z m61 -30 c8 -22 -4 -45 -24 -45 -18 0
-30 19 -30 46 0 19 46 18 54 -1z"/>
<path d="M57 549 c7 -7 15 -10 18 -7 3 3 -2 9 -12 12 -14 6 -15 5 -6 -5z"/>
<path d="M2940 578 c0 -11 8 -22 20 -25 11 -3 20 -12 20 -19 0 -8 4 -14 9 -14
6 0 6 12 0 32 -5 18 -9 33 -9 34 0 1 -9 4 -20 7 -15 4 -20 0 -20 -15z"/>
<path d="M2663 563 c-17 -6 -16 -51 1 -69 30 -30 86 -11 86 29 0 37 -45 58
-87 40z m61 -30 c4 -9 2 -21 -3 -26 -15 -15 -46 -3 -49 21 -3 18 1 22 21 22
14 0 28 -7 31 -17z"/>
<path d="M2688 518 c5 -5 16 -8 23 -6 8 3 3 7 -10 11 -17 4 -21 3 -13 -5z"/>
<path d="M860 544 c-42 -14 -80 -45 -80 -65 0 -5 54 -9 120 -9 73 0 120 4 120
10 0 6 -4 10 -10 10 -5 0 -10 8 -10 19 0 43 -68 60 -140 35z m104 -10 c9 -3
16 -15 16 -25 0 -17 -8 -19 -86 -19 -54 0 -83 4 -79 10 3 6 13 10 21 10 8 0
14 4 14 9 0 17 82 27 114 15z"/>
<path d="M1234 455 c0 -60 1 -84 3 -52 2 32 2 81 0 110 -2 29 -3 3 -3 -58z"/>
<path d="M1977 549 c-10 -6 -17 -22 -17 -39 0 -23 5 -31 25 -36 42 -11 75 3
75 31 0 14 -4 25 -10 25 -5 0 -10 7 -10 15 0 8 -7 15 -15 15 -8 0 -15 -6 -15
-12 0 -10 -2 -10 -8 -1 -5 8 -13 8 -25 2z m58 -29 c8 -14 -6 -40 -22 -40 -25
0 -43 28 -34 54 2 6 51 -6 56 -14z"/>
<path d="M163 529 c-18 -11 -33 -27 -33 -34 0 -7 -6 -15 -12 -18 -7 -2 26 -6
74 -8 47 -2 84 -1 81 4 -2 4 -33 7 -69 7 -35 0 -64 4 -64 9 0 14 82 51 112 51
30 0 53 -23 44 -45 -3 -8 -1 -15 3 -15 5 0 18 -3 28 -6 10 -3 14 -2 8 3 -6 4
-15 22 -20 38 -10 28 -14 30 -65 33 -42 2 -63 -3 -87 -19z"/>
<path d="M1498 533 c-10 -2 -18 -9 -18 -14 0 -5 -7 -9 -15 -9 -9 0 -19 -8 -22
-17 -4 -10 -11 -21 -17 -25 -6 -4 45 -7 114 -7 69 0 119 3 113 6 -7 2 -13 13
-13 22 0 41 -70 63 -142 44z m104 -18 c4 -5 8 -18 8 -27 0 -16 -10 -18 -82
-18 l-83 1 24 19 c13 11 29 20 37 20 8 0 14 3 14 8 0 11 74 9 82 -3z"/>
<path d="M2363 514 c-12 -13 -21 -25 -20 -25 12 -6 65 -4 61 2 -3 5 -1 9 5 9
5 0 18 3 28 7 16 6 16 5 4 -10 -8 -10 -9 -17 -3 -17 19 0 23 18 10 40 -14 22
-29 27 -25 8 1 -7 -5 -13 -13 -13 -8 0 -14 6 -12 13 3 18 -10 13 -35 -14z m27
-14 c0 -5 -2 -10 -4 -10 -3 0 -8 5 -11 10 -3 6 -1 10 4 10 6 0 11 -4 11 -10z"/>
<path d="M2798 507 c-16 -6 -30 -19 -34 -29 -3 -10 -10 -18 -15 -18 -6 0 -8
-4 -5 -9 7 -11 226 -11 226 0 0 5 -4 9 -10 9 -5 0 -10 8 -10 18 0 10 -5 23
-12 30 -15 15 -103 14 -140 -1z m116 -3 c9 -3 16 -15 16 -25 0 -17 -8 -19 -81
-19 -51 0 -78 4 -74 10 3 6 13 10 21 10 8 0 14 4 14 9 0 17 73 27 104 15z"/>
<path d="M1214 420 c0 -52 1 -74 3 -47 2 26 2 68 0 95 -2 26 -3 4 -3 -48z"/>
<path d="M2128 503 c-10 -2 -18 -9 -18 -14 0 -5 -6 -9 -13 -9 -12 0 -47 -34
-47 -45 0 -3 54 -5 120 -5 l120 0 -12 23 c-28 50 -40 57 -87 56 -25 -1 -54 -3
-63 -6z m110 -35 c3 -16 -6 -18 -80 -17 l-83 1 40 19 c50 24 118 22 123 -3z"/>
<path d="M2990 460 c0 -39 -3 -48 -14 -44 -11 4 -13 0 -9 -15 3 -12 8 -21 12
-21 12 0 3 -154 -9 -158 -7 -3 -10 0 -6 6 3 6 2 13 -3 16 -5 3 -9 -12 -9 -33
-1 -25 4 -41 14 -45 8 -3 14 -10 14 -16 0 -7 -40 -10 -115 -9 l-115 1 26 31
c24 29 26 36 22 118 -3 83 -17 124 -35 104 -5 -4 -3 -10 4 -12 7 -2 10 -10 7
-18 -3 -7 -2 -15 3 -18 5 -3 6 -39 3 -81 -6 -69 -10 -78 -43 -112 -34 -36 -40
-38 -117 -43 -45 -4 -83 -5 -85 -2 -3 2 3 9 12 16 10 7 14 19 10 29 -8 19 -29
17 -33 -2 -1 -7 0 -8 3 -2 7 15 23 12 23 -3 0 -8 -11 -19 -25 -25 -21 -10 -25
-9 -25 5 0 13 -3 14 -11 6 -16 -16 -1 -36 22 -30 10 3 22 1 25 -4 9 -15 148
-11 170 6 14 11 51 14 157 15 127 0 137 1 137 19 0 10 -7 24 -15 31 -13 11
-14 16 -2 34 11 15 15 61 16 164 1 78 -1 142 -4 142 -3 0 -5 -22 -5 -50z"/>
<path d="M2310 446 c0 -34 -3 -44 -14 -40 -8 3 -15 -4 -18 -19 -4 -19 -1 -23
12 -20 12 3 23 -5 34 -28 20 -41 21 -99 1 -99 -10 0 -15 16 -18 58 l-4 57 0
-63 c0 -39 -5 -67 -13 -75 -10 -10 -12 -9 -7 6 4 9 2 17 -3 17 -16 0 -11 -62
7 -82 15 -17 13 -18 -48 -19 -35 -1 -67 -1 -71 -1 -3 1 -69 2 -147 3 l-141 1
0 37 c0 25 7 44 20 56 11 10 20 24 20 32 0 7 5 13 10 13 6 0 10 12 10 26 0 14
4 23 10 19 6 -3 10 -35 10 -69 0 -54 -3 -66 -21 -78 -21 -13 -20 -14 15 -14
20 0 36 4 36 8 0 4 -3 8 -7 8 -5 0 -7 35 -5 78 l3 78 -41 13 c-23 7 -48 15
-56 18 -10 4 -14 -3 -14 -21 0 -17 5 -26 16 -26 14 0 15 2 3 17 -12 15 -12 16
4 10 10 -4 21 -7 23 -7 2 0 4 -13 4 -30 0 -17 -5 -30 -12 -30 -34 0 -54 -142
-22 -154 9 -3 110 -6 225 -6 179 0 209 2 209 15 0 8 -8 23 -19 34 -17 17 -17
18 0 30 10 6 23 11 29 11 6 0 16 5 23 11 17 16 6 122 -15 146 -12 13 -15 30
-11 64 3 29 1 49 -6 53 -7 5 -11 -7 -11 -38z"/>
<path d="M1831 458 c-1 -31 18 -78 32 -78 5 0 2 11 -6 23 -8 13 -17 37 -20 53
l-4 29 -2 -27z"/>
<path d="M6 455 c4 -8 10 -15 16 -15 5 0 6 -4 3 -10 -3 -5 3 -10 15 -10 20 0
20 1 -6 25 -31 29 -35 31 -28 10z"/>
<path d="M2351 464 c-1 -6 7 -21 18 -33 16 -19 20 -19 25 -5 4 9 13 14 21 10
26 -10 16 9 -12 21 -19 9 -29 10 -34 2 -4 -8 -8 -7 -12 2 -3 8 -6 9 -6 3z m39
-20 c0 -8 -5 -12 -10 -9 -6 4 -8 11 -5 16 9 14 15 11 15 -7z"/>
<path d="M2435 460 c3 -5 11 -10 16 -10 6 0 7 5 4 10 -3 6 -11 10 -16 10 -6 0
-7 -4 -4 -10z"/>
<path d="M810 410 c0 -25 4 -30 24 -30 13 0 27 6 30 13 5 10 7 10 12 0 3 -7
19 -13 35 -13 27 0 30 3 27 28 -2 19 -9 28 -25 30 -13 2 -23 -1 -23 -7 0 -6
-9 -11 -20 -11 -11 0 -20 5 -20 10 0 6 -9 10 -20 10 -16 0 -20 -7 -20 -30z
m38 -8 c2 -7 -3 -12 -12 -12 -9 0 -16 7 -16 16 0 17 22 14 28 -4z m72 3 c0 -8
-7 -15 -15 -15 -26 0 -18 20 13 29 1 1 2 -6 2 -14z"/>
<path d="M2581 429 c-1 -10 9 -19 24 -21 20 -4 25 -1 24 16 0 11 -3 15 -6 9
-2 -7 -11 -13 -18 -13 -7 0 -16 6 -18 13 -4 7 -6 6 -6 -4z"/>
<path d="M440 410 c0 -22 1 -23 24 -14 23 9 20 34 -4 34 -13 0 -20 -7 -20 -20z"/>
<path d="M1250 416 c0 -9 5 -16 10 -16 6 0 10 4 10 9 0 6 -4 13 -10 16 -5 3
-10 -1 -10 -9z"/>
<path d="M2550 419 c0 -6 -7 -9 -15 -5 -8 3 -15 1 -15 -4 0 -6 9 -10 20 -10
11 0 20 7 20 15 0 8 -2 15 -5 15 -3 0 -5 -5 -5 -11z"/>
<path d="M67 397 c-4 -11 -5 -23 -1 -28 3 -5 -2 -9 -10 -9 -9 0 -16 -4 -16
-10 0 -5 4 -10 9 -10 16 0 33 29 29 52 -3 21 -4 21 -11 5z"/>
<path d="M353 393 c9 -2 17 -13 17 -24 0 -10 5 -19 10 -19 6 0 10 -22 10 -50
0 -31 -4 -50 -11 -50 -16 0 -59 -48 -59 -64 0 -8 7 -16 15 -20 8 -3 15 -10 15
-16 0 -6 -61 -10 -175 -10 -110 0 -175 -4 -175 -10 0 -6 66 -11 175 -11 96 -1
181 -2 188 -3 19 -2 16 26 -6 51 -16 19 -18 25 -7 38 7 8 19 15 27 15 8 0 20
6 26 13 13 13 17 127 5 127 -5 0 -8 6 -8 14 0 15 -22 27 -48 25 -15 -1 -15 -2
1 -6z"/>
<path d="M1250 380 c0 -5 5 -10 11 -10 5 0 7 5 4 10 -3 6 -8 10 -11 10 -2 0
-4 -4 -4 -10z"/>
<path d="M2454 365 c-4 -9 -4 -19 0 -22 3 -4 6 1 6 10 0 22 27 22 34 0 4 -14
4 -14 3 2 -3 25 -35 32 -43 10z"/>
<path d="M330 321 c0 -28 -4 -53 -10 -56 -5 -3 -9 -16 -9 -28 1 -17 2 -18 6
-4 2 9 11 17 19 17 11 0 14 15 14 60 0 33 -4 60 -10 60 -5 0 -10 -22 -10 -49z"/>
<path d="M2945 359 c-4 -9 -25 -15 -67 -17 -83 -3 -87 -12 -6 -12 47 0 69 4
78 15 7 9 10 18 7 22 -4 3 -9 0 -12 -8z"/>
<path d="M2140 350 l-105 -5 108 -5 c81 -4 107 -2 107 8 0 6 -1 11 -2 10 -2
-1 -50 -4 -108 -8z"/>
<path d="M0 335 c0 -7 8 -19 18 -25 16 -10 16 -10 -1 -20 -25 -16 -21 -33 6
-24 l22 6 -22 -19 c-13 -11 -23 -29 -23 -39 0 -15 9 -10 42 23 l41 42 -35 35
c-39 39 -48 43 -48 21z"/>
<path d="M1258 343 c-15 -4 -18 -16 -18 -70 l0 -66 25 29 c43 50 45 52 45 84
0 31 -9 35 -52 23z m32 -27 c0 -13 -7 -27 -16 -30 -8 -3 -12 -10 -9 -16 3 -5
1 -10 -4 -10 -15 0 -14 53 1 68 18 18 28 14 28 -12z"/>
<path d="M561 323 c20 -26 31 -32 45 -26 23 9 -3 43 -33 43 -23 0 -24 -2 -12
-17z"/>
<path d="M2598 333 c7 -3 16 -2 19 1 4 3 -2 6 -13 5 -11 0 -14 -3 -6 -6z"/>
<path d="M1188 313 c-21 -5 -24 -43 -4 -43 8 0 17 -10 19 -22 2 -13 4 -2 3 25
0 26 0 46 -1 46 0 -1 -8 -3 -17 -6z"/>
<path d="M2068 313 c34 -2 90 -2 125 0 34 2 6 3 -63 3 -69 0 -97 -1 -62 -3z"/>
<path d="M2448 313 c6 -2 12 -11 12 -18 0 -7 -6 -16 -12 -18 -8 -3 -6 -6 5 -6
12 -1 17 7 17 24 0 17 -5 25 -17 24 -11 0 -13 -3 -5 -6z"/>
<path d="M2569 313 c0 -4 -2 -18 -5 -29 -5 -27 18 -47 48 -42 19 2 23 9 23 38
0 32 -3 35 -32 38 -18 2 -33 0 -34 -5z m61 -28 c0 -20 -5 -25 -25 -25 -20 0
-25 5 -25 25 0 20 5 25 25 25 20 0 25 -5 25 -25z"/>
<path d="M1870 295 c0 -8 4 -15 9 -15 5 0 11 7 15 15 3 9 0 15 -9 15 -8 0 -15
-7 -15 -15z"/>
<path d="M2671 284 c0 -11 3 -14 6 -6 3 7 2 16 -1 19 -3 4 -6 -2 -5 -13z"/>
<path d="M2710 288 c0 -18 33 -33 50 -23 5 3 10 12 9 18 0 9 -2 9 -6 0 -7 -18
-24 -16 -39 5 -12 16 -13 16 -14 0z"/>
<path d="M1601 224 c0 -11 3 -14 6 -6 3 7 2 16 -1 19 -3 4 -6 -2 -5 -13z"/>
<path d="M2452 223 c2 -10 13 -19 26 -21 17 -3 22 2 22 17 0 16 -6 21 -26 21
-19 0 -25 -5 -22 -17z m38 -3 c0 -5 -7 -10 -15 -10 -8 0 -15 5 -15 10 0 6 7
10 15 10 8 0 15 -4 15 -10z"/>
<path d="M2725 226 c-20 -14 -15 -47 7 -45 10 0 10 2 1 6 -22 8 -15 36 6 30
14 -3 18 -1 14 9 -6 17 -5 17 -28 0z"/>
<path d="M1212 190 c0 -19 2 -27 5 -17 2 9 2 25 0 35 -3 9 -5 1 -5 -18z"/>
<path d="M44 193 c6 -18 2 -22 -21 -26 l-28 -4 28 -2 c31 -1 47 23 27 42 -10
9 -11 7 -6 -10z"/>
<path d="M1232 175 c0 -16 2 -22 5 -12 2 9 2 23 0 30 -3 6 -5 -1 -5 -18z"/>
<path d="M1490 160 l-25 -8 28 -1 c15 -1 27 4 27 9 0 6 -1 10 -2 9 -2 -1 -14
-5 -28 -9z"/>
<path d="M2670 163 c5 -2 10 -11 10 -18 0 -7 -5 -16 -10 -18 -6 -3 -5 -4 2 -3
7 2 13 11 13 21 0 10 -6 19 -13 21 -7 1 -8 0 -2 -3z"/>
<path d="M1318 153 c6 -2 18 -2 25 0 6 3 1 5 -13 5 -14 0 -19 -2 -12 -5z"/>
<path d="M446 139 c5 -8 9 -23 9 -34 0 -16 6 -19 28 -17 18 2 27 -2 27 -12 0
-19 -17 -30 -25 -16 -14 23 -31 9 -31 -25 1 -19 1 -35 2 -35 10 0 64 62 64 72
0 14 -38 53 -69 72 -11 7 -12 6 -5 -5z m34 -39 c0 -5 -4 -10 -10 -10 -5 0 -10
5 -10 10 0 6 5 10 10 10 6 0 10 -4 10 -10z m0 -60 c0 -5 -2 -10 -4 -10 -3 0
-8 5 -11 10 -3 6 -1 10 4 10 6 0 11 -4 11 -10z"/>
<path d="M398 115 c-22 -30 -22 -30 3 -32 17 -2 18 1 9 13 -15 17 1 19 18 2 9
-9 12 -9 12 -1 0 7 -5 15 -10 18 -6 4 -8 11 -5 16 13 20 -11 7 -27 -16z"/>
<path d="M1723 133 c4 -6 3 -13 -2 -15 -5 -1 -3 -12 5 -23 15 -19 15 -19 12 7
-2 15 -8 31 -13 35 -4 4 -5 3 -2 -4z"/>
<path d="M1755 112 c0 -23 4 -27 28 -24 18 2 27 -2 27 -12 0 -19 -17 -30 -25
-16 -14 23 -34 10 -30 -21 3 -18 7 -34 11 -38 4 -3 4 6 0 22 -4 16 -2 27 4 27
5 0 10 -5 10 -10 0 -7 6 -7 20 0 26 14 27 56 1 63 -11 2 -25 0 -31 -7 -9 -8
-11 -6 -6 11 4 12 3 24 -2 26 -4 3 -8 -6 -7 -21z"/>
<path d="M2421 121 c-9 -6 -6 -10 10 -14 13 -4 27 -2 31 3 5 6 5 8 2 5 -4 -3
-12 -1 -18 5 -7 5 -18 5 -25 1z"/>
<path d="M755 100 c3 -5 8 -10 11 -10 2 0 4 5 4 10 0 6 -5 10 -11 10 -5 0 -7
-4 -4 -10z"/>
<path d="M783 100 c2 -9 14 -14 31 -13 16 1 26 -3 26 -12 0 -18 -17 -28 -25
-15 -14 23 -31 9 -31 -25 1 -19 1 -35 2 -35 10 0 64 62 64 74 0 21 -36 41 -43
23 -4 -9 -8 -8 -17 3 -10 13 -11 13 -7 0z m27 -60 c0 -5 -2 -10 -4 -10 -3 0
-8 5 -11 10 -3 6 -1 10 4 10 6 0 11 -4 11 -10z"/>
<path d="M2160 103 c0 -6 -9 -9 -20 -6 -11 3 -20 1 -20 -4 0 -12 38 -14 46 -2
3 6 3 13 0 16 -3 4 -6 2 -6 -4z"/>
<path d="M2780 101 c0 -8 -6 -11 -16 -7 -16 6 -44 -9 -44 -24 0 -13 60 -70 61
-57 1 6 3 22 4 35 1 13 -3 22 -11 22 -8 0 -14 -4 -14 -10 0 -5 5 -10 11 -10 5
0 7 -4 4 -10 -4 -6 -11 -5 -19 3 -8 6 -11 16 -8 21 3 5 -1 6 -8 1 -8 -5 -11
-3 -8 6 5 15 116 21 125 7 2 -5 12 -8 21 -8 11 0 7 6 -12 15 -15 8 -33 12 -38
9 -6 -4 -14 0 -19 7 -7 12 -9 11 -9 -1 0 -13 -1 -13 -10 0 -7 12 -10 12 -10 1z"/>
<path d="M710 89 c0 -5 -4 -7 -10 -4 -5 3 -10 1 -10 -4 0 -14 17 -14 25 -1 3
5 13 6 22 3 11 -4 14 -3 9 5 -9 15 -36 16 -36 1z"/>
<path d="M1240 92 c0 -6 -8 -13 -17 -15 -16 -4 -16 -5 -1 -6 18 -1 34 16 24
26 -3 4 -6 1 -6 -5z"/>
<path d="M1686 92 c-2 -4 4 -9 15 -9 11 -1 17 2 14 8 -7 11 -22 12 -29 1z"/>
<path d="M2205 90 c-8 -13 5 -13 25 0 13 8 13 10 -2 10 -9 0 -20 -4 -23 -10z"/>
<path d="M2401 97 c-1 -13 63 -87 76 -87 6 0 14 4 17 9 4 5 -3 7 -14 4 -18 -5
-20 -2 -16 31 3 27 1 36 -10 36 -8 0 -14 -4 -14 -10 0 -5 5 -10 11 -10 5 0 7
-4 4 -10 -4 -6 -11 -5 -19 3 -8 6 -11 16 -8 21 3 5 0 6 -6 2 -5 -3 -13 0 -15
6 -3 7 -6 9 -6 5z"/>
<path d="M2103 70 c2 -21 7 -25 30 -23 24 2 26 -1 21 -23 -3 -13 -2 -24 3 -24
4 0 8 16 9 35 0 35 -9 45 -22 24 -4 -8 -9 -7 -15 2 -7 12 -9 11 -10 -1 0 -8
-5 -4 -10 10 l-8 25 2 -25z"/>
<path d="M2250 76 c0 -21 -21 -31 -31 -15 -4 7 -12 10 -16 5 -4 -5 -2 -11 5
-13 6 -3 9 -9 6 -15 -4 -6 -10 -5 -15 3 -4 7 -11 10 -15 6 -4 -3 -2 -13 4 -20
7 -8 11 -16 9 -18 -1 -2 5 3 13 12 8 9 23 19 33 22 15 6 26 47 12 47 -3 0 -5
-6 -5 -14z"/>
<path d="M2500 82 c0 -7 5 -12 11 -12 5 0 7 -5 4 -10 -5 -8 -11 -7 -21 1 -10
9 -14 9 -14 0 0 -17 30 -25 43 -12 8 8 7 15 -6 28 -11 11 -17 13 -17 5z"/>
<path d="M405 61 c-3 -6 -11 -9 -16 -6 -17 11 -9 -4 18 -32 14 -15 23 -23 19
-16 -3 6 -2 14 4 18 5 3 10 11 10 17 0 7 -5 6 -14 -1 -9 -7 -17 -8 -20 -2 -3
5 0 11 6 14 7 2 10 7 7 11 -4 4 -10 2 -14 -3z"/>
<path d="M735 60 c-4 -6 -11 -8 -16 -5 -5 4 -9 2 -9 -2 0 -5 9 -14 20 -21 22
-13 40 -9 40 10 0 6 -7 5 -16 -3 -15 -12 -16 -11 -10 9 8 23 2 30 -9 12z"/>
<path d="M1422 53 c6 -8 19 -11 32 -7 17 6 19 4 9 -7 -8 -10 -9 -20 -3 -29 9
-13 10 -13 11 0 1 8 3 25 4 38 1 13 -3 22 -11 22 -8 0 -14 -4 -14 -10 0 -5 -5
-10 -11 -10 -5 0 -8 4 -5 8 3 5 -1 9 -9 9 -11 0 -12 -4 -3 -14z"/>
<path d="M1515 50 c7 -22 6 -23 -9 -11 -9 8 -16 9 -16 3 0 -23 23 -23 44 -1
11 13 17 20 12 16 -5 -4 -16 -1 -24 6 -13 10 -14 8 -7 -13z"/>
<path d="M1705 61 c-3 -6 -11 -9 -16 -6 -17 11 -9 -4 18 -32 14 -15 23 -23 19
-16 -3 6 -2 14 4 18 5 3 10 11 10 17 0 7 -5 6 -14 -1 -9 -7 -17 -8 -20 -2 -3
5 0 11 6 14 7 2 10 7 7 11 -4 4 -10 2 -14 -3z"/>
<path d="M2825 50 c7 -22 6 -23 -9 -11 -9 8 -16 9 -16 3 0 -6 4 -14 10 -17 13
-8 50 12 50 27 0 6 -3 8 -7 5 -3 -4 -13 -1 -21 6 -13 10 -14 8 -7 -13z"/>
</g>
</svg>
